<?xml version="1.0" standalone="no"?>
<!DOCTYPE svg PUBLIC "-//W3C//DTD SVG 20010904//EN"
 "http://www.w3.org/TR/2001/REC-SVG-20010904/DTD/svg10.dtd">
<svg version="1.0" xmlns="http://www.w3.org/2000/svg"
 width="550.000000pt" height="550.000000pt" viewBox="0 0 550.000000 550.000000"
 preserveAspectRatio="xMidYMid meet">
<metadata>
Created by potrace 1.11, written by Peter Selinger 2001-2013
</metadata>
<g transform="translate(0.000000,550.000000) scale(0.100000,-0.100000)"
fill="#000000" stroke="none">
<path d="M3598 5484 c-2 -1 -23 -5 -48 -9 -25 -3 -92 -22 -150 -42 -346 -117
-625 -369 -772 -698 -45 -102 -65 -162 -82 -255 -14 -74 -19 -249 -9 -304 l6
-29 91 7 c104 7 171 22 271 60 274 105 500 314 641 595 40 80 78 176 89 221 2
8 11 42 20 75 17 61 30 304 18 357 -4 24 -10 27 -39 26 -19 -1 -35 -2 -36 -4z"/>
<path d="M1668 4215 c-2 -1 -40 -5 -84 -9 -503 -39 -1022 -472 -1199 -1001
-26 -78 -30 -92 -40 -136 -2 -11 -6 -28 -9 -37 -3 -9 -8 -30 -11 -47 -2 -16
-7 -41 -10 -54 -32 -162 -38 -509 -11 -711 2 -14 7 -48 10 -75 42 -313 170
-714 331 -1035 75 -149 278 -476 352 -565 4 -5 24 -30 43 -55 57 -74 91 -111
176 -196 201 -199 395 -289 609 -280 122 4 193 22 339 86 270 117 348 135 591
135 181 -1 277 -21 453 -97 65 -27 142 -60 172 -73 148 -61 323 -69 465 -21
269 92 524 355 849 873 86 138 286 530 286 560 0 5 -38 25 -85 47 -240 109
-453 317 -563 549 -50 105 -85 203 -98 277 -2 8 -8 42 -14 75 -30 163 -15 368
41 540 85 267 283 512 522 650 l47 27 -39 47 c-197 235 -479 418 -746 486
-116 30 -169 36 -285 36 -176 1 -323 -26 -509 -92 -379 -134 -398 -138 -550
-134 -141 4 -182 14 -506 125 -169 58 -292 88 -398 96 -40 3 -84 7 -99 9 -15
1 -28 2 -30 0z"/>
<path d="M4863 523 c-52 -18 -126 -87 -149 -140 -24 -54 -24 -167 0 -215 46
-95 134 -151 236 -151 77 0 123 17 178 67 136 124 105 343 -62 428 -50 26
-146 31 -203 11z m158 -34 c83 -25 150 -112 154 -199 8 -207 -231 -315 -376
-169 -166 165 -3 435 222 368z"/>
<path d="M4865 275 c0 -132 1 -145 17 -145 18 0 23 24 18 93 -1 26 1 27 44 27
28 0 46 -4 46 -12 0 -25 46 -107 61 -108 27 0 27 9 -2 68 l-27 57 21 23 c31
34 28 88 -7 118 -23 20 -38 24 -99 24 l-72 0 0 -145z m153 87 c30 -39 0 -72
-68 -72 l-48 0 1 43 c1 25 6 44 15 47 24 10 87 -1 100 -18z"/>
</g>
</svg>
